# xmcd
#
# Track frame offsets: 
#        150
#        10065
#        21417
#        34487
#        46855
#        58905
#        70037
#        84190
#        94807
#        105840
#        119605
#        128882
#        140572
#        152760
#        165132
#        179310
#        191572
#        201982
#        211825
#        221042
#        231905
#        245392
#        255245
#        265455
#
# Disc length: 3751 seconds
#
# Revision: 7
# Processed by: cddbd v1.5.2PL0 Copyright (c) Steve Scherf et al.
# Submitted via: ExactAudioCopy v1.0b1
#
DISCID=4e0ea518
DTITLE=Various Artist - Country U.S.A. Vol. 10 1965
DYEAR=1989
DGENRE=Country
TTITLE0=Buck Owens - I've Got A Tiger By The Tail
TTITLE1=Merle Haggard - (My Friends Are Gonna Be) Strangers
TTITLE2=George Jones - Things Have Gone To Pieces
TTITLE3=Stonewall Jackson - I Washed My Hands In Muddy Water
TTITLE4=Eddy Arnold - Make The World Go Away
TTITLE5=Roger Miller - King Of The Road
TTITLE6=Johnny Cash - Orange Blossom Special
TTITLE7=Statler Brothers - Flowers On The Wall
TTITLE8=Connie Smith - Then And Only Then
TTITLE9=Porter Wagoner - Skid Row Joe
TTITLE10=Sonny James - Behind The Tear
TTITLE11=Marty Robbins - Ribbon Of Darkness
TTITLE12=Del Reeves - Girl On The Billboard
TTITLE13=George Jones - Take Me
TTITLE14=Jim Reeves - This Is It
TTITLE15=Loretta Lynn - Blue Kentucky Girl
TTITLE16=Roger Miller - Kansas City Star
TTITLE17=Eddy Arnold - What's He Doin' In My World
TTITLE18=Chet Atkins - Yakety Axe
TTITLE19=Porter Wagoner - Green Green Grass Of Home
TTITLE20=Ray Price - The Other Woman
TTITLE21=Buck Owens - Before You Go
TTITLE22=Jim Reeves - Is It Really Over
TTITLE23=Johnny Bond - Ten Little Bottles
EXTD=
EXTT0=Buck Owens
EXTT1=Merle Haggard
EXTT2=George Jones
EXTT3=Stonewall Jackson
EXTT4=Eddy Arnold
EXTT5=Roger Miller
EXTT6=Johnny Cash
EXTT7=The Statler Brothers
EXTT8=Connie Smith
EXTT9=Porter Wagoner
EXTT10=Sonny James
EXTT11=Marty Robbins
EXTT12=Del Reeves
EXTT13=George Jones
EXTT14=Jim Reeves
EXTT15=Loretta Lynn
EXTT16=Roger Miller
EXTT17=Eddy Arnold
EXTT18=Chet Atkins
EXTT19=Porter Wagoner
EXTT20=Ray Price
EXTT21=Buck Owens
EXTT22=Jim Reeves
EXTT23=Johnny Bond
PLAYORDER=
